# xmcd
#
# Track frame offsets: 
#        150
#        3120
#        23777
#        34255
#        51302
#        76870
#        99440
#        121237
#        133600
#        165961
#        178351
#
# Disc length: 2457 seconds
#
# Revision: 0
# Processed by: cddbd v1.5.2PL0 Copyright (c) Steve Scherf et al.
# Submitted via: ExactAudioCopy v0.95b3
#
DISCID=7f09970b
DTITLE=Brown, James - Live At The Garden
DYEAR=1967
DGENRE=Soul
TTITLE0=Out Of Sight
TTITLE1=Bring It Up
TTITLE2=Try Me
TTITLE3=Let Yourself Go
TTITLE4=Hip Bag '67
TTITLE5=Prisoner Of Love
TTITLE6=It May Be The Last Time
TTITLE7=I Got You (I Feel Good)
TTITLE8=Ain't That A Groove
TTITLE9=Please, Please, Please
TTITLE10=Bring It Up
EXTD=
EXTT0=
EXTT1=
EXTT2=
EXTT3=
EXTT4=
EXTT5=
EXTT6=
EXTT7=
EXTT8=
EXTT9=
EXTT10=
PLAYORDER=
